<svg class="icon footer__image" width="30" height="24" xmlns="http://www.w3.org/2000/svg"><g fill="#3472AD" fill-rule="evenodd"><path d="M28.767 2.029c-.649-.212-1.985.677-3.472 2.15-3.076 3.044-5.321 7.374-6.25 10.802l-.22.855-.119.493a18.55 18.55 0 00-.333 1.723c-.053.37-.09.692-.102.93-.067 1.423.18 2.6 1.085 2.89 1.852.591 4.231-.95 5.33-3.628 1.053-2.572-1.321-2.127-1.08-2.863a.27.27 0 01.129-.146c.878-.511 4.098-3.157 5.205-6.132 1.392-3.74 1.492-6.532-.173-7.074M10.721 2.866c-6.126-4.4-8.415-1.105-8.895.453C1.084 5.733.805 6.64.145 9.406c-1.042 4.367 3.739 5.649 7.897 5.954.42.04.715.052.809.062.273.03.31.255.25.424-.018.053-.064.18-.316.32l-.08.042S5.068 18.05 5 19.928c-.05 1.395 1.634 2.57 3.123 3.09l.024.01.015.005.004.001c.1.037.203.073.313.105 3.892 1.17 7.886-3.296 9.013-5.764 1.127-2.469.865-5.074.174-6.514-.44-.92-2.753-5.432-6.945-7.995"></path></g></svg>